<svg width="741" height="552" viewBox="0 0 741 552" fill="none" xmlns="http://www.w3.org/2000/svg">
<path d="M740.82 485.089H0V485.459H740.82V485.089Z" fill="#EBEBEB"/>
<path d="M126.799 499.194H77.7271V499.565H126.799V499.194Z" fill="#EBEBEB"/>
<path d="M333.37 499.387H253.568V499.757H333.37V499.387Z" fill="#EBEBEB"/>
<path d="M185.146 506.84H156.714V507.21H185.146V506.84Z" fill="#EBEBEB"/>
<path d="M660.812 506.662H632.32V507.032H660.812V506.662Z" fill="#EBEBEB"/>
<path d="M619.118 506.662H574.239V507.032H619.118V506.662Z" fill="#EBEBEB"/>
<path d="M549.526 504.217H486.467V504.588H549.526V504.217Z" fill="#EBEBEB"/>
<path d="M351.149 419.008H65.0594C62.8182 419.004 60.6701 418.111 59.0867 416.525C57.5033 414.939 56.614 412.789 56.614 410.548V8.38608C56.6335 6.15773 57.5314 4.02707 59.1127 2.45688C60.694 0.8867 62.8309 0.00381728 65.0594 0H351.149C353.393 0 355.545 0.891337 357.132 2.47793C358.718 4.06451 359.609 6.21639 359.609 8.46017V410.548C359.609 412.792 358.718 414.943 357.132 416.53C355.545 418.117 353.393 419.008 351.149 419.008ZM65.0594 0.296329C62.9164 0.300254 60.8625 1.15429 59.3486 2.67099C57.8347 4.18769 56.9844 6.24311 56.9844 8.38608V410.548C56.9844 412.691 57.8347 414.746 59.3486 416.263C60.8625 417.78 62.9164 418.634 65.0594 418.637H351.149C353.294 418.634 355.349 417.78 356.865 416.264C358.382 414.747 359.235 412.692 359.239 410.548V8.38608C359.235 6.24175 358.382 4.18636 356.865 2.67009C355.349 1.15381 353.294 0.300246 351.149 0.296329H65.0594Z" fill="#EBEBEB"/>
<path d="M671.642 419.008H385.537C383.295 419.004 381.145 418.111 379.559 416.526C377.974 414.94 377.081 412.79 377.077 410.548V8.38608C377.101 6.15638 378.002 4.02573 379.585 2.45596C381.169 0.886182 383.307 0.00377565 385.537 0H671.642C673.868 0.00771119 676.001 0.892317 677.579 2.46208C679.157 4.03185 680.053 6.16029 680.073 8.38608V410.548C680.073 412.786 679.185 414.934 677.605 416.52C676.025 418.105 673.881 419 671.642 419.008ZM385.537 0.296329C383.393 0.300246 381.338 1.15381 379.821 2.67009C378.305 4.18636 377.451 6.24175 377.448 8.38608V410.548C377.451 412.692 378.305 414.747 379.821 416.264C381.338 417.78 383.393 418.634 385.537 418.637H671.642C673.786 418.634 675.842 417.78 677.358 416.264C678.874 414.747 679.728 412.692 679.732 410.548V8.38608C679.728 6.24175 678.874 4.18636 677.358 2.67009C675.842 1.15381 673.786 0.300246 671.642 0.296329H385.537Z" fill="#EBEBEB"/>
<path d="M447.781 485.089H489.741V276.326H447.781V485.089Z" fill="#E6E6E6"/>
<path d="M455.738 485.089H447.767V462.42H464.095L455.738 485.089Z" fill="#F0F0F0"/>
<path d="M604.599 485.089H646.559V276.326H604.599V485.089Z" fill="#E6E6E6"/>
<path d="M447.781 471.176H611.562V276.326H447.781V471.176Z" fill="#F0F0F0"/>
<path d="M453.96 404.947V442.833H526.99V404.947H453.96Z" fill="#E6E6E6"/>
<path d="M532.339 404.947V442.833H605.369V404.947H532.339Z" fill="#E6E6E6"/>
<path d="M561.631 411.288H576.077C579.183 411.29 582.257 410.658 585.111 409.43C587.964 408.202 590.537 406.404 592.671 404.147H545.036C547.17 406.404 549.743 408.202 552.596 409.43C555.45 410.658 558.524 411.29 561.631 411.288Z" fill="#F0F0F0"/>
<path d="M482.511 411.288H496.957C500.064 411.29 503.138 410.658 505.991 409.43C508.845 408.202 511.417 406.404 513.551 404.147H465.917C468.051 406.404 470.624 408.202 473.477 409.43C476.331 410.658 479.405 411.29 482.511 411.288Z" fill="#F0F0F0"/>
<path d="M453.945 346.052V383.938H526.975V346.052H453.945Z" fill="#E6E6E6"/>
<path d="M532.339 346.067V383.952H605.369V346.067H532.339Z" fill="#E6E6E6"/>
<path d="M561.631 352.393H576.077C579.182 352.387 582.254 351.748 585.105 350.515C587.955 349.282 590.525 347.481 592.656 345.222H545.036C547.169 347.483 549.741 349.285 552.594 350.518C555.448 351.751 558.522 352.389 561.631 352.393Z" fill="#F0F0F0"/>
<path d="M482.511 352.393H496.957C500.062 352.395 503.135 351.763 505.988 350.538C508.841 349.313 511.414 347.519 513.551 345.267H465.917C468.054 347.519 470.627 349.313 473.48 350.538C476.333 351.763 479.406 352.395 482.511 352.393Z" fill="#F0F0F0"/>
<path d="M453.96 287.172V325.057H526.99V287.172H453.96Z" fill="#E6E6E6"/>
<path d="M532.339 287.172V325.057H605.369V287.172H532.339Z" fill="#E6E6E6"/>
<path d="M561.631 293.513H576.077C579.183 293.515 582.257 292.882 585.111 291.654C587.964 290.426 590.537 288.628 592.671 286.371H545.036C547.17 288.628 549.743 290.426 552.596 291.654C555.45 292.882 558.524 293.515 561.631 293.513Z" fill="#F0F0F0"/>
<path d="M482.511 293.513H496.957C500.064 293.515 503.138 292.882 505.991 291.654C508.845 290.426 511.417 288.628 513.551 286.371H465.917C468.051 288.628 470.624 290.426 473.477 291.654C476.331 292.882 479.405 293.515 482.511 293.513Z" fill="#F0F0F0"/>
<path d="M603.59 485.089H611.562V462.42H595.234L603.59 485.089Z" fill="#F0F0F0"/>
<path d="M610.496 133.007L616.911 150.549H610.496L571.128 133.007H610.496Z" fill="#F5F5F5"/>
<path d="M616.911 133.007V150.549L577.558 133.007H616.911Z" fill="#E6E6E6"/>
<path d="M456.153 133.007L462.568 150.549H456.153L416.8 133.007H456.153Z" fill="#F5F5F5"/>
<path d="M462.568 133.007V150.549L423.216 133.007H462.568Z" fill="#E6E6E6"/>
<path d="M645.803 120.472H602.998V133.822H645.803V120.472Z" fill="#E6E6E6"/>
<path d="M390.19 133.837L602.998 133.837V120.487L390.19 120.487V133.837Z" fill="#F5F5F5"/>
<path d="M559.778 74.082C559.778 74.082 560.208 120.487 576.224 120.487C592.241 120.487 592.655 74.082 592.655 74.082H559.778Z" fill="#F0F0F0"/>
<path d="M460.464 105.345C460.464 105.345 461.59 120.472 504.676 120.472C547.762 120.472 548.888 105.345 548.888 105.345H460.464Z" fill="#F0F0F0"/>
<path d="M332.42 485.089H335.28L343.473 444.714L344.955 437.632L353.845 393.628H388.189L406.754 485.089H409.628L390.708 391.953C390.646 391.634 390.474 391.347 390.222 391.141C389.971 390.936 389.655 390.825 389.33 390.827H352.704C352.381 390.825 352.067 390.937 351.818 391.143C351.569 391.349 351.4 391.635 351.341 391.953L343.488 430.594L342.006 437.662L332.42 485.089Z" fill="#F0F0F0"/>
<path d="M277.407 485.089H280.267L298.847 393.627H333.102L341.992 437.662L343.474 444.714L351.682 485.089H354.541L344.911 437.677L343.429 430.639L335.576 391.998C335.5 391.686 335.324 391.408 335.075 391.205C334.827 391.002 334.519 390.885 334.199 390.872H297.706C297.381 390.869 297.065 390.98 296.813 391.186C296.562 391.392 296.39 391.679 296.328 391.998L277.407 485.089Z" fill="#F0F0F0"/>
<path d="M393.316 380.159H293.646C291.361 380.163 289.169 381.073 287.553 382.689C285.937 384.306 285.027 386.497 285.023 388.782V389.079C285.023 389.916 285.356 390.718 285.948 391.31C286.539 391.902 287.342 392.235 288.179 392.235H398.784C399.621 392.235 400.423 391.902 401.015 391.31C401.607 390.718 401.939 389.916 401.939 389.079V388.782C401.936 386.497 401.026 384.306 399.409 382.689C397.793 381.073 395.602 380.163 393.316 380.159Z" fill="#F0F0F0"/>
<path d="M232.395 485.089H235.255L243.448 444.714L244.93 437.632L253.82 393.628H288.075L306.7 485.089H309.574L290.653 391.953C290.591 391.634 290.419 391.347 290.168 391.141C289.916 390.936 289.6 390.825 289.275 390.827H252.679C252.356 390.825 252.042 390.937 251.793 391.143C251.544 391.349 251.375 391.635 251.316 391.953L243.463 430.594L241.981 437.662L232.395 485.089Z" fill="#F0F0F0"/>
<path d="M177.382 485.089H180.256L198.821 393.628H233.092L241.982 437.662L243.463 444.714L251.672 485.089H254.531L244.9 437.677L243.419 430.639L235.581 391.953C235.504 391.642 235.328 391.363 235.08 391.16C234.831 390.957 234.524 390.84 234.203 390.827H197.681C197.356 390.825 197.04 390.936 196.788 391.141C196.537 391.347 196.365 391.634 196.303 391.953L177.382 485.089Z" fill="#F0F0F0"/>
<path d="M293.365 380.159H193.621C191.335 380.163 189.144 381.073 187.528 382.689C185.911 384.306 185.001 386.497 184.998 388.782V389.079C184.998 389.916 185.33 390.718 185.922 391.31C186.514 391.902 187.316 392.235 188.153 392.235H298.773C299.186 392.235 299.596 392.153 299.978 391.994C300.36 391.835 300.707 391.603 300.999 391.309C301.291 391.016 301.522 390.668 301.679 390.285C301.836 389.902 301.916 389.492 301.914 389.079V388.782C301.91 386.509 301.01 384.329 299.41 382.715C297.81 381.101 295.638 380.183 293.365 380.159Z" fill="#F0F0F0"/>
<path d="M124.947 263.139H268.147V33.7368L124.947 33.7368L124.947 263.139Z" fill="#E6E6E6"/>
<path d="M115.597 263.139H263.776V33.7368L115.597 33.7368L115.597 263.139Z" fill="#F0F0F0"/>
<path d="M124.947 280.519H268.147V263.125H124.947V280.519Z" fill="#E6E6E6"/>
<path d="M100.011 280.519H248.19V263.125H100.011V280.519Z" fill="#F0F0F0"/>
<path d="M250.664 250.041V46.8345L128.68 46.8345V250.041H250.664Z" fill="#FAFAFA"/>
<path d="M251.716 250.027L208.808 46.8345H172.507L215.416 250.027H251.716Z" fill="white"/>
<path d="M241.833 225.758C242.081 225.758 242.318 225.659 242.493 225.484C242.668 225.309 242.767 225.072 242.767 224.824V55.3543C242.767 55.1068 242.668 54.8693 242.493 54.6943C242.318 54.5192 242.081 54.4209 241.833 54.4209C241.586 54.4209 241.348 54.5192 241.173 54.6943C240.998 54.8693 240.9 55.1068 240.9 55.3543V224.824C240.9 225.072 240.998 225.309 241.173 225.484C241.348 225.659 241.586 225.758 241.833 225.758Z" fill="#F0F0F0"/>
<path d="M207.622 250.027L164.714 46.8345H150.564L193.458 250.027H207.622Z" fill="white"/>
<path d="M130.354 250.041V46.8345H128.695V250.041H130.354Z" fill="#E6E6E6"/>
<path opacity="0.6" d="M112.486 56.8948H255.686L256.901 51.9165H113.701L112.486 56.8948Z" fill="#F0F0F0"/>
<path opacity="0.6" d="M112.486 68.4664H255.686L256.901 63.5029H113.701L112.486 68.4664Z" fill="#F0F0F0"/>
<path opacity="0.6" d="M112.486 80.053H255.686L256.901 75.0747H113.701L112.486 80.053Z" fill="#F0F0F0"/>
<path opacity="0.6" d="M112.486 91.6246H255.686L256.901 86.6611H113.701L112.486 91.6246Z" fill="#F0F0F0"/>
<path opacity="0.6" d="M112.486 103.211H255.686L256.901 98.2476H113.701L112.486 103.211Z" fill="#F0F0F0"/>
<path opacity="0.6" d="M112.486 114.798H255.686L256.901 109.819H113.701L112.486 114.798Z" fill="#F0F0F0"/>
<path d="M370.41 552C529.067 552 657.685 544.491 657.685 535.228C657.685 525.965 529.067 518.456 370.41 518.456C211.752 518.456 83.1343 525.965 83.1343 535.228C83.1343 544.491 211.752 552 370.41 552Z" fill="#F5F5F5"/>
<path d="M360.216 307.781H269.702C268.426 307.781 267.391 308.816 267.391 310.093V347.845C267.391 349.121 268.426 350.156 269.702 350.156H360.216C361.492 350.156 362.527 349.121 362.527 347.845V310.093C362.527 308.816 361.492 307.781 360.216 307.781Z" fill="#0034D1"/>
<path opacity="0.6" d="M360.216 307.781H269.702C268.426 307.781 267.391 308.816 267.391 310.093V347.845C267.391 349.121 268.426 350.156 269.702 350.156H360.216C361.492 350.156 362.527 349.121 362.527 347.845V310.093C362.527 308.816 361.492 307.781 360.216 307.781Z" fill="white"/>
<path opacity="0.1" d="M360.202 307.781H269.659C269.046 307.781 268.458 308.025 268.024 308.458C267.591 308.892 267.347 309.48 267.347 310.093V322.198L314.463 331.473C314.752 331.532 315.049 331.532 315.337 331.473L362.468 322.198V310.093C362.469 309.487 362.231 308.906 361.807 308.474C361.383 308.042 360.807 307.793 360.202 307.781Z" fill="black"/>
<path d="M362.187 292.283H334.54V287.645C334.536 285.729 333.773 283.892 332.418 282.537C331.062 281.182 329.226 280.419 327.309 280.415H302.61C300.694 280.419 298.857 281.182 297.502 282.537C296.147 283.892 295.384 285.729 295.38 287.645V292.283H267.747C267.142 292.283 266.562 292.523 266.134 292.951C265.706 293.379 265.466 293.96 265.466 294.565V317.397C265.469 317.924 265.653 318.434 265.987 318.841C266.322 319.249 266.786 319.529 267.303 319.634L314.523 328.924C314.812 328.969 315.107 328.969 315.397 328.924L362.617 319.634C363.135 319.529 363.601 319.25 363.938 318.843C364.275 318.436 364.462 317.925 364.469 317.397V294.565C364.469 293.96 364.228 293.379 363.8 292.951C363.373 292.523 362.792 292.283 362.187 292.283ZM300.877 287.645C300.881 287.185 301.064 286.745 301.388 286.419C301.712 286.092 302.15 285.905 302.61 285.897H327.309C327.769 285.905 328.208 286.092 328.532 286.419C328.856 286.745 329.039 287.185 329.043 287.645V292.283H300.892L300.877 287.645Z" fill="#0034D1"/>
<path opacity="0.6" d="M362.187 292.283H334.54V287.645C334.536 285.729 333.773 283.892 332.418 282.537C331.062 281.182 329.226 280.419 327.309 280.415H302.61C300.694 280.419 298.857 281.182 297.502 282.537C296.147 283.892 295.384 285.729 295.38 287.645V292.283H267.747C267.142 292.283 266.562 292.523 266.134 292.951C265.706 293.379 265.466 293.96 265.466 294.565V317.397C265.469 317.924 265.653 318.434 265.987 318.841C266.322 319.249 266.786 319.529 267.303 319.634L314.523 328.924C314.812 328.969 315.107 328.969 315.397 328.924L362.617 319.634C363.135 319.529 363.601 319.25 363.938 318.843C364.275 318.436 364.462 317.925 364.469 317.397V294.565C364.469 293.96 364.228 293.379 363.8 292.951C363.373 292.523 362.792 292.283 362.187 292.283ZM300.877 287.645C300.881 287.185 301.064 286.745 301.388 286.419C301.712 286.092 302.15 285.905 302.61 285.897H327.309C327.769 285.905 328.208 286.092 328.532 286.419C328.856 286.745 329.039 287.185 329.043 287.645V292.283H300.892L300.877 287.645Z" fill="white"/>
<path d="M319.841 322.687H310.092C308.881 322.687 307.899 323.668 307.899 324.879V331.043C307.899 332.254 308.881 333.236 310.092 333.236H319.841C321.052 333.236 322.034 332.254 322.034 331.043V324.879C322.034 323.668 321.052 322.687 319.841 322.687Z" fill="#0034D1"/>
<path opacity="0.3" d="M319.841 322.687H310.092C308.881 322.687 307.899 323.668 307.899 324.879V331.043C307.899 332.254 308.881 333.236 310.092 333.236H319.841C321.052 333.236 322.034 332.254 322.034 331.043V324.879C322.034 323.668 321.052 322.687 319.841 322.687Z" fill="white"/>
<path d="M360.216 35.2188H269.702C268.426 35.2188 267.391 36.2536 267.391 37.5301V75.2823C267.391 76.5588 268.426 77.5937 269.702 77.5937H360.216C361.492 77.5937 362.527 76.5588 362.527 75.2823V37.5301C362.527 36.2536 361.492 35.2188 360.216 35.2188Z" fill="#0034D1"/>
<path opacity="0.6" d="M360.216 35.2188H269.702C268.426 35.2188 267.391 36.2536 267.391 37.5301V75.2823C267.391 76.5588 268.426 77.5937 269.702 77.5937H360.216C361.492 77.5937 362.527 76.5588 362.527 75.2823V37.5301C362.527 36.2536 361.492 35.2188 360.216 35.2188Z" fill="white"/>
<path opacity="0.1" d="M360.202 35.2188H269.659C269.046 35.2188 268.458 35.4623 268.024 35.8957C267.591 36.3292 267.347 36.9171 267.347 37.5301V49.6351L314.463 58.9102C314.752 58.9693 315.049 58.9693 315.337 58.9102L362.468 49.6351V37.5301C362.469 36.9247 362.231 36.3435 361.807 35.9113C361.383 35.479 360.807 35.2304 360.202 35.2188Z" fill="black"/>
<path d="M362.187 19.7205H334.54V15.0829C334.536 13.1665 333.773 11.3297 332.418 9.9746C331.062 8.61949 329.226 7.85645 327.309 7.85254H302.61C300.694 7.85645 298.857 8.61949 297.502 9.9746C296.147 11.3297 295.384 13.1665 295.38 15.0829V19.7205H267.747C267.142 19.7205 266.562 19.9609 266.134 20.3888C265.706 20.8167 265.466 21.3971 265.466 22.0022V44.8343C265.466 45.3622 265.649 45.8736 265.984 46.2816C266.319 46.6895 266.785 46.9687 267.303 47.0716L314.523 56.3022C314.811 56.3613 315.108 56.3613 315.397 56.3022L362.617 47.0123C363.129 46.9151 363.593 46.6465 363.932 46.2506C364.271 45.8548 364.466 45.3553 364.484 44.8343V22.0022C364.484 21.7013 364.424 21.4034 364.309 21.1256C364.193 20.8478 364.024 20.5956 363.81 20.3835C363.597 20.1715 363.343 20.0037 363.065 19.8899C362.786 19.7761 362.488 19.7185 362.187 19.7205ZM300.877 15.0829C300.877 14.6218 301.059 14.1793 301.384 13.8519C301.708 13.5244 302.149 13.3385 302.61 13.3346H327.309C327.768 13.3385 328.206 13.5224 328.531 13.8466C328.855 14.1709 329.039 14.6096 329.043 15.0681V19.7057H300.892L300.877 15.0829Z" fill="#0034D1"/>
<path opacity="0.6" d="M362.187 19.7205H334.54V15.0829C334.536 13.1665 333.773 11.3297 332.418 9.9746C331.062 8.61949 329.226 7.85645 327.309 7.85254H302.61C300.694 7.85645 298.857 8.61949 297.502 9.9746C296.147 11.3297 295.384 13.1665 295.38 15.0829V19.7205H267.747C267.142 19.7205 266.562 19.9609 266.134 20.3888C265.706 20.8167 265.466 21.3971 265.466 22.0022V44.8343C265.466 45.3622 265.649 45.8736 265.984 46.2816C266.319 46.6895 266.785 46.9687 267.303 47.0716L314.523 56.3022C314.811 56.3613 315.108 56.3613 315.397 56.3022L362.617 47.0123C363.129 46.9151 363.593 46.6465 363.932 46.2506C364.271 45.8548 364.466 45.3553 364.484 44.8343V22.0022C364.484 21.7013 364.424 21.4034 364.309 21.1256C364.193 20.8478 364.024 20.5956 363.81 20.3835C363.597 20.1715 363.343 20.0037 363.065 19.8899C362.786 19.7761 362.488 19.7185 362.187 19.7205ZM300.877 15.0829C300.877 14.6218 301.059 14.1793 301.384 13.8519C301.708 13.5244 302.149 13.3385 302.61 13.3346H327.309C327.768 13.3385 328.206 13.5224 328.531 13.8466C328.855 14.1709 329.039 14.6096 329.043 15.0681V19.7057H300.892L300.877 15.0829Z" fill="white"/>
<path d="M319.841 50.1387H310.092C308.881 50.1387 307.899 51.1204 307.899 52.3315V58.4951C307.899 59.7062 308.881 60.688 310.092 60.688H319.841C321.052 60.688 322.034 59.7062 322.034 58.4951V52.3315C322.034 51.1204 321.052 50.1387 319.841 50.1387Z" fill="#0034D1"/>
<path opacity="0.3" d="M319.841 50.1387H310.092C308.881 50.1387 307.899 51.1204 307.899 52.3315V58.4951C307.899 59.7062 308.881 60.688 310.092 60.688H319.841C321.052 60.688 322.034 59.7062 322.034 58.4951V52.3315C322.034 51.1204 321.052 50.1387 319.841 50.1387Z" fill="white"/>
<path d="M219.223 307.781H128.709C127.433 307.781 126.398 308.816 126.398 310.093V347.845C126.398 349.121 127.433 350.156 128.709 350.156H219.223C220.499 350.156 221.534 349.121 221.534 347.845V310.093C221.534 308.816 220.499 307.781 219.223 307.781Z" fill="#0034D1"/>
<path opacity="0.6" d="M219.223 307.781H128.709C127.433 307.781 126.398 308.816 126.398 310.093V347.845C126.398 349.121 127.433 350.156 128.709 350.156H219.223C220.499 350.156 221.534 349.121 221.534 347.845V310.093C221.534 308.816 220.499 307.781 219.223 307.781Z" fill="white"/>
<path opacity="0.1" d="M219.282 307.781H128.709C128.096 307.781 127.508 308.025 127.075 308.458C126.641 308.892 126.398 309.48 126.398 310.093V322.198L173.514 331.473C173.808 331.532 174.11 331.532 174.403 331.473L221.534 322.198V310.093C221.534 309.49 221.299 308.911 220.878 308.479C220.457 308.047 219.885 307.797 219.282 307.781Z" fill="black"/>
<path d="M221.179 292.283H193.532V287.645C193.528 285.729 192.765 283.892 191.41 282.537C190.054 281.182 188.218 280.419 186.301 280.415H161.617C159.701 280.419 157.864 281.182 156.509 282.537C155.154 283.892 154.391 285.729 154.387 287.645V292.283H126.739C126.134 292.283 125.554 292.523 125.126 292.951C124.698 293.379 124.458 293.96 124.458 294.565V317.397C124.46 317.924 124.645 318.434 124.979 318.841C125.314 319.249 125.778 319.529 126.295 319.634L173.515 328.924C173.809 328.969 174.109 328.969 174.404 328.924L221.624 319.634C222.14 319.529 222.605 319.249 222.939 318.841C223.274 318.434 223.458 317.924 223.461 317.397V294.565C223.461 293.96 223.22 293.379 222.792 292.951C222.365 292.523 221.784 292.283 221.179 292.283ZM159.869 287.645C159.876 287.184 160.063 286.744 160.389 286.418C160.715 286.091 161.156 285.905 161.617 285.897H186.301C186.762 285.905 187.203 286.091 187.529 286.418C187.855 286.744 188.042 287.184 188.05 287.645V292.283H159.898L159.869 287.645Z" fill="#0034D1"/>
<path opacity="0.6" d="M221.179 292.283H193.532V287.645C193.528 285.729 192.765 283.892 191.41 282.537C190.054 281.182 188.218 280.419 186.301 280.415H161.617C159.701 280.419 157.864 281.182 156.509 282.537C155.154 283.892 154.391 285.729 154.387 287.645V292.283H126.739C126.134 292.283 125.554 292.523 125.126 292.951C124.698 293.379 124.458 293.96 124.458 294.565V317.397C124.46 317.924 124.645 318.434 124.979 318.841C125.314 319.249 125.778 319.529 126.295 319.634L173.515 328.924C173.809 328.969 174.109 328.969 174.404 328.924L221.624 319.634C222.14 319.529 222.605 319.249 222.939 318.841C223.274 318.434 223.458 317.924 223.461 317.397V294.565C223.461 293.96 223.22 293.379 222.792 292.951C222.365 292.523 221.784 292.283 221.179 292.283ZM159.869 287.645C159.876 287.184 160.063 286.744 160.389 286.418C160.715 286.091 161.156 285.905 161.617 285.897H186.301C186.762 285.905 187.203 286.091 187.529 286.418C187.855 286.744 188.042 287.184 188.05 287.645V292.283H159.898L159.869 287.645Z" fill="white"/>
<path d="M178.833 322.687H169.084C167.873 322.687 166.891 323.668 166.891 324.879V331.043C166.891 332.254 167.873 333.236 169.084 333.236H178.833C180.044 333.236 181.026 332.254 181.026 331.043V324.879C181.026 323.668 180.044 322.687 178.833 322.687Z" fill="#0034D1"/>
<path opacity="0.3" d="M178.833 322.687H169.084C167.873 322.687 166.891 323.668 166.891 324.879V331.043C166.891 332.254 167.873 333.236 169.084 333.236H178.833C180.044 333.236 181.026 332.254 181.026 331.043V324.879C181.026 323.668 180.044 322.687 178.833 322.687Z" fill="white"/>
<path d="M219.223 35.2188H128.709C127.433 35.2188 126.398 36.2536 126.398 37.5301V75.2823C126.398 76.5588 127.433 77.5937 128.709 77.5937H219.223C220.499 77.5937 221.534 76.5588 221.534 75.2823V37.5301C221.534 36.2536 220.499 35.2188 219.223 35.2188Z" fill="#0034D1"/>
<path opacity="0.6" d="M219.223 35.2188H128.709C127.433 35.2188 126.398 36.2536 126.398 37.5301V75.2823C126.398 76.5588 127.433 77.5937 128.709 77.5937H219.223C220.499 77.5937 221.534 76.5588 221.534 75.2823V37.5301C221.534 36.2536 220.499 35.2188 219.223 35.2188Z" fill="white"/>
<path opacity="0.1" d="M219.282 35.2188H128.709C128.096 35.2188 127.508 35.4623 127.075 35.8957C126.641 36.3292 126.398 36.9171 126.398 37.5301V49.6351L173.514 58.9102C173.807 58.9697 174.11 58.9697 174.403 58.9102L221.534 49.6351V37.5301C221.534 36.9272 221.299 36.3481 220.878 35.9163C220.457 35.4845 219.885 35.2342 219.282 35.2188Z" fill="black"/>
<path d="M221.179 19.7205H193.532V15.0829C193.528 13.1665 192.765 11.3297 191.41 9.9746C190.054 8.61949 188.218 7.85645 186.301 7.85254H161.617C159.701 7.85645 157.864 8.61949 156.509 9.9746C155.154 11.3297 154.391 13.1665 154.387 15.0829V19.7205H126.739C126.134 19.7205 125.554 19.9609 125.126 20.3888C124.698 20.8167 124.458 21.3971 124.458 22.0022V44.8343C124.458 45.3622 124.641 45.8736 124.976 46.2816C125.311 46.6895 125.777 46.9687 126.295 47.0716L173.515 56.3022C173.808 56.3616 174.11 56.3616 174.404 56.3022L221.624 47.0123C222.141 46.9095 222.607 46.6303 222.942 46.2223C223.277 45.8144 223.461 45.3029 223.461 44.775V22.0022C223.461 21.3971 223.22 20.8167 222.792 20.3888C222.365 19.9609 221.784 19.7205 221.179 19.7205ZM159.869 15.0829C159.873 14.6205 160.058 14.178 160.385 13.851C160.712 13.5239 161.155 13.3385 161.617 13.3346H186.301C186.761 13.3384 187.201 13.5218 187.528 13.8457C187.855 14.1695 188.042 14.6082 188.05 15.0681V19.7057H159.898L159.869 15.0829Z" fill="#0034D1"/>
<path opacity="0.6" d="M221.179 19.7205H193.532V15.0829C193.528 13.1665 192.765 11.3297 191.41 9.9746C190.054 8.61949 188.218 7.85645 186.301 7.85254H161.617C159.701 7.85645 157.864 8.61949 156.509 9.9746C155.154 11.3297 154.391 13.1665 154.387 15.0829V19.7205H126.739C126.134 19.7205 125.554 19.9609 125.126 20.3888C124.698 20.8167 124.458 21.3971 124.458 22.0022V44.8343C124.458 45.3622 124.641 45.8736 124.976 46.2816C125.311 46.6895 125.777 46.9687 126.295 47.0716L173.515 56.3022C173.808 56.3616 174.11 56.3616 174.404 56.3022L221.624 47.0123C222.141 46.9095 222.607 46.6303 222.942 46.2223C223.277 45.8144 223.461 45.3029 223.461 44.775V22.0022C223.461 21.3971 223.22 20.8167 222.792 20.3888C222.365 19.9609 221.784 19.7205 221.179 19.7205ZM159.869 15.0829C159.873 14.6205 160.058 14.178 160.385 13.851C160.712 13.5239 161.155 13.3385 161.617 13.3346H186.301C186.761 13.3384 187.201 13.5218 187.528 13.8457C187.855 14.1695 188.042 14.6082 188.05 15.0681V19.7057H159.898L159.869 15.0829Z" fill="white"/>
<path d="M178.833 50.1387H169.084C167.873 50.1387 166.891 51.1204 166.891 52.3315V58.4951C166.891 59.7062 167.873 60.688 169.084 60.688H178.833C180.044 60.688 181.026 59.7062 181.026 58.4951V52.3315C181.026 51.1204 180.044 50.1387 178.833 50.1387Z" fill="#0034D1"/>
<path opacity="0.3" d="M178.833 50.1387H169.084C167.873 50.1387 166.891 51.1204 166.891 52.3315V58.4951C166.891 59.7062 167.873 60.688 169.084 60.688H178.833C180.044 60.688 181.026 59.7062 181.026 58.4951V52.3315C181.026 51.1204 180.044 50.1387 178.833 50.1387Z" fill="white"/>
<path d="M207.429 213.875H128.71C128.093 213.875 127.501 213.63 127.065 213.194C126.629 212.757 126.384 212.166 126.384 211.549V173.811C126.386 173.5 126.451 173.193 126.576 172.908C126.636 172.775 126.706 172.646 126.784 172.522C126.866 172.396 126.966 172.281 127.08 172.182C127.512 171.748 128.098 171.502 128.71 171.5H203.221C202.602 176.671 202.398 181.883 202.614 187.087C202.614 187.931 202.614 188.776 202.747 189.606C202.851 191.161 202.97 192.732 203.147 194.288C203.91 200.945 205.345 207.507 207.429 213.875Z" fill="#0034D1"/>
<path opacity="0.6" d="M207.429 213.875H128.71C128.093 213.875 127.501 213.63 127.065 213.194C126.629 212.757 126.384 212.166 126.384 211.549V173.811C126.386 173.5 126.451 173.193 126.576 172.908C126.636 172.775 126.706 172.646 126.784 172.522C126.866 172.396 126.966 172.281 127.08 172.182C127.512 171.748 128.098 171.502 128.71 171.5H203.221C202.602 176.671 202.398 181.883 202.614 187.087C202.614 187.931 202.614 188.776 202.747 189.606C202.851 191.161 202.97 192.732 203.147 194.288C203.91 200.945 205.345 207.507 207.429 213.875Z" fill="white"/>
<path opacity="0.1" d="M203.221 171.5C202.601 176.671 202.398 181.883 202.614 187.087C202.614 187.931 202.614 188.776 202.747 189.606L181.026 193.873L174.388 195.177C174.102 195.251 173.801 195.251 173.514 195.177L166.891 193.888L126.398 185.916V173.797C126.403 173.492 126.463 173.191 126.576 172.908C126.636 172.775 126.705 172.646 126.783 172.522C126.866 172.396 126.965 172.281 127.08 172.182C127.511 171.748 128.097 171.502 128.709 171.5H203.221Z" fill="black"/>
<path d="M206.318 156.002H193.546V151.364C193.539 149.446 192.772 147.61 191.415 146.255C190.057 144.9 188.219 144.138 186.301 144.134H161.617C159.699 144.134 157.86 144.896 156.504 146.252C155.148 147.607 154.387 149.447 154.387 151.364V156.002H126.739C126.44 156.002 126.143 156.061 125.866 156.175C125.589 156.29 125.338 156.458 125.126 156.67C124.914 156.882 124.746 157.133 124.631 157.41C124.517 157.687 124.458 157.984 124.458 158.283V181.101C124.458 181.632 124.643 182.148 124.98 182.558C125.318 182.969 125.788 183.25 126.31 183.353H126.398L166.892 191.339L173.515 192.628C173.803 192.687 174.1 192.687 174.389 192.628L181.027 191.324L202.614 187.072C202.398 181.868 202.602 176.656 203.222 171.485C203.837 166.249 204.872 161.071 206.318 156.002ZM159.869 151.364C159.876 150.904 160.064 150.466 160.39 150.142C160.717 149.818 161.157 149.634 161.617 149.631H186.301C186.76 149.635 187.198 149.818 187.523 150.143C187.847 150.467 188.031 150.906 188.035 151.364V156.002H159.884L159.869 151.364Z" fill="#0034D1"/>
<path opacity="0.6" d="M206.318 156.002H193.546V151.364C193.539 149.446 192.772 147.61 191.415 146.255C190.057 144.9 188.219 144.138 186.301 144.134H161.617C159.699 144.134 157.86 144.896 156.504 146.252C155.148 147.607 154.387 149.447 154.387 151.364V156.002H126.739C126.44 156.002 126.143 156.061 125.866 156.175C125.589 156.29 125.338 156.458 125.126 156.67C124.914 156.882 124.746 157.133 124.631 157.41C124.517 157.687 124.458 157.984 124.458 158.283V181.101C124.458 181.632 124.643 182.148 124.98 182.558C125.318 182.969 125.788 183.25 126.31 183.353H126.398L166.892 191.339L173.515 192.628C173.803 192.687 174.1 192.687 174.389 192.628L181.027 191.324L202.614 187.072C202.398 181.868 202.602 176.656 203.222 171.485C203.837 166.249 204.872 161.071 206.318 156.002ZM159.869 151.364C159.876 150.904 160.064 150.466 160.39 150.142C160.717 149.818 161.157 149.634 161.617 149.631H186.301C186.76 149.635 187.198 149.818 187.523 150.143C187.847 150.467 188.031 150.906 188.035 151.364V156.002H159.884L159.869 151.364Z" fill="white"/>
<path d="M178.833 186.405H169.084C167.873 186.405 166.891 187.387 166.891 188.598V194.762C166.891 195.973 167.873 196.955 169.084 196.955H178.833C180.044 196.955 181.026 195.973 181.026 194.762V188.598C181.026 187.387 180.044 186.405 178.833 186.405Z" fill="#0034D1"/>
<path opacity="0.3" d="M178.833 186.405H169.084C167.873 186.405 166.891 187.387 166.891 188.598V194.762C166.891 195.973 167.873 196.955 169.084 196.955H178.833C180.044 196.955 181.026 195.973 181.026 194.762V188.598C181.026 187.387 180.044 186.405 178.833 186.405Z" fill="white"/>
<path d="M410.696 350.141H501.209C502.486 350.141 503.521 349.106 503.521 347.83V310.078C503.521 308.801 502.486 307.766 501.209 307.766H410.696C409.419 307.766 408.384 308.801 408.384 310.078V347.83C408.384 349.106 409.419 350.141 410.696 350.141Z" fill="#0034D1"/>
<path opacity="0.6" d="M410.696 350.141H501.209C502.486 350.141 503.521 349.106 503.521 347.83V310.078C503.521 308.801 502.486 307.766 501.209 307.766H410.696C409.419 307.766 408.384 308.801 408.384 310.078V347.83C408.384 349.106 409.419 350.141 410.696 350.141Z" fill="white"/>
<path opacity="0.1" d="M410.711 307.781H501.21C501.823 307.781 502.41 308.025 502.844 308.458C503.277 308.891 503.521 309.479 503.521 310.092V322.197L456.345 331.472C456.057 331.532 455.76 331.532 455.471 331.472L408.34 322.197V310.092C408.34 309.784 408.402 309.478 408.522 309.194C408.642 308.91 408.817 308.652 409.038 308.437C409.259 308.221 409.521 308.052 409.808 307.94C410.096 307.827 410.402 307.773 410.711 307.781Z" fill="black"/>
<path d="M408.74 292.283H436.387V287.645C436.391 285.729 437.154 283.892 438.509 282.537C439.864 281.182 441.701 280.419 443.617 280.415H468.316C470.233 280.419 472.07 281.182 473.425 282.537C474.78 283.892 475.543 285.729 475.547 287.645V292.283H503.179C503.479 292.283 503.776 292.342 504.053 292.457C504.329 292.571 504.581 292.739 504.793 292.951C505.005 293.163 505.173 293.415 505.287 293.692C505.402 293.968 505.461 294.265 505.461 294.565V317.397C505.458 317.924 505.274 318.434 504.939 318.841C504.605 319.249 504.14 319.529 503.624 319.634L456.345 328.924C456.05 328.969 455.75 328.969 455.456 328.924L408.236 319.634C407.719 319.529 407.255 319.249 406.92 318.841C406.586 318.434 406.402 317.924 406.399 317.397V294.565C406.399 294.26 406.459 293.958 406.578 293.678C406.696 293.397 406.87 293.143 407.088 292.93C407.306 292.717 407.565 292.55 407.848 292.439C408.132 292.328 408.435 292.275 408.74 292.283ZM470.05 287.645C470.046 287.185 469.863 286.745 469.539 286.419C469.215 286.092 468.776 285.905 468.316 285.897H443.617C443.156 285.905 442.716 286.091 442.39 286.418C442.063 286.744 441.877 287.184 441.869 287.645V292.283H470.02L470.05 287.645Z" fill="#0034D1"/>
<path opacity="0.6" d="M408.74 292.283H436.387V287.645C436.391 285.729 437.154 283.892 438.509 282.537C439.864 281.182 441.701 280.419 443.617 280.415H468.316C470.233 280.419 472.07 281.182 473.425 282.537C474.78 283.892 475.543 285.729 475.547 287.645V292.283H503.179C503.479 292.283 503.776 292.342 504.053 292.457C504.329 292.571 504.581 292.739 504.793 292.951C505.005 293.163 505.173 293.415 505.287 293.692C505.402 293.968 505.461 294.265 505.461 294.565V317.397C505.458 317.924 505.274 318.434 504.939 318.841C504.605 319.249 504.14 319.529 503.624 319.634L456.345 328.924C456.05 328.969 455.75 328.969 455.456 328.924L408.236 319.634C407.719 319.529 407.255 319.249 406.92 318.841C406.586 318.434 406.402 317.924 406.399 317.397V294.565C406.399 294.26 406.459 293.958 406.578 293.678C406.696 293.397 406.87 293.143 407.088 292.93C407.306 292.717 407.565 292.55 407.848 292.439C408.132 292.328 408.435 292.275 408.74 292.283ZM470.05 287.645C470.046 287.185 469.863 286.745 469.539 286.419C469.215 286.092 468.776 285.905 468.316 285.897H443.617C443.156 285.905 442.716 286.091 442.39 286.418C442.063 286.744 441.877 287.184 441.869 287.645V292.283H470.02L470.05 287.645Z" fill="white"/>
<path d="M451.085 333.236H460.834C462.045 333.236 463.027 332.254 463.027 331.043V324.879C463.027 323.668 462.045 322.687 460.834 322.687H451.085C449.874 322.687 448.892 323.668 448.892 324.879V331.043C448.892 332.254 449.874 333.236 451.085 333.236Z" fill="#0034D1"/>
<path opacity="0.3" d="M451.085 333.236H460.834C462.045 333.236 463.027 332.254 463.027 331.043V324.879C463.027 323.668 462.045 322.687 460.834 322.687H451.085C449.874 322.687 448.892 323.668 448.892 324.879V331.043C448.892 332.254 449.874 333.236 451.085 333.236Z" fill="white"/>
<path d="M410.696 77.5786L501.209 77.5786C502.486 77.5786 503.521 76.5438 503.521 75.2672V37.5151C503.521 36.2385 502.486 35.2037 501.209 35.2037L410.696 35.2037C409.419 35.2037 408.384 36.2385 408.384 37.5151V75.2672C408.384 76.5438 409.419 77.5786 410.696 77.5786Z" fill="#0034D1"/>
<path opacity="0.6" d="M410.696 77.5786L501.209 77.5786C502.486 77.5786 503.521 76.5438 503.521 75.2672V37.5151C503.521 36.2385 502.486 35.2037 501.209 35.2037L410.696 35.2037C409.419 35.2037 408.384 36.2385 408.384 37.5151V75.2672C408.384 76.5438 409.419 77.5786 410.696 77.5786Z" fill="white"/>
<path opacity="0.1" d="M410.71 35.2188H501.209C501.822 35.2188 502.41 35.4623 502.843 35.8957C503.276 36.3292 503.52 36.9171 503.52 37.5301V49.6351L456.345 58.9102C456.056 58.9693 455.759 58.9693 455.47 58.9102L408.399 49.6351V37.5301C408.399 36.9171 408.642 36.3292 409.076 35.8957C409.509 35.4623 410.097 35.2188 410.71 35.2188Z" fill="black"/>
<path d="M408.74 19.7206H436.387V15.0831C436.391 13.1667 437.154 11.3299 438.509 9.97474C439.864 8.61962 441.701 7.85659 443.617 7.85268H468.316C469.27 7.84682 470.216 8.02941 471.099 8.38997C471.982 8.75053 472.786 9.28195 473.463 9.95375C474.14 10.6255 474.678 11.4245 475.046 12.3047C475.414 13.1849 475.604 14.1291 475.606 15.0831V19.7206H503.239C503.844 19.7206 504.424 19.961 504.852 20.3889C505.28 20.8168 505.52 21.3972 505.52 22.0023V44.8344C505.52 45.3623 505.337 45.8738 505.002 46.2817C504.667 46.6897 504.201 46.9689 503.683 47.0717L456.345 56.3023C456.051 56.3618 455.749 56.3618 455.456 56.3023L408.236 47.0124C407.718 46.9096 407.252 46.6304 406.917 46.2225C406.582 45.8145 406.399 45.303 406.399 44.7752V22.0023C406.399 21.6976 406.459 21.396 406.578 21.1153C406.696 20.8345 406.87 20.5803 407.088 20.3676C407.306 20.1549 407.565 19.9881 407.848 19.877C408.132 19.7659 408.435 19.7127 408.74 19.7206ZM470.05 15.0831C470.05 14.622 469.868 14.1795 469.543 13.852C469.218 13.5246 468.778 13.3387 468.316 13.3347H443.617C443.158 13.3385 442.717 13.5219 442.391 13.8458C442.064 14.1697 441.877 14.6084 441.869 15.0683V19.7058H470.02L470.05 15.0831Z" fill="#0034D1"/>
<path opacity="0.6" d="M408.74 19.7206H436.387V15.0831C436.391 13.1667 437.154 11.3299 438.509 9.97474C439.864 8.61962 441.701 7.85659 443.617 7.85268H468.316C469.27 7.84682 470.216 8.02941 471.099 8.38997C471.982 8.75053 472.786 9.28195 473.463 9.95375C474.14 10.6255 474.678 11.4245 475.046 12.3047C475.414 13.1849 475.604 14.1291 475.606 15.0831V19.7206H503.239C503.844 19.7206 504.424 19.961 504.852 20.3889C505.28 20.8168 505.52 21.3972 505.52 22.0023V44.8344C505.52 45.3623 505.337 45.8738 505.002 46.2817C504.667 46.6897 504.201 46.9689 503.683 47.0717L456.345 56.3023C456.051 56.3618 455.749 56.3618 455.456 56.3023L408.236 47.0124C407.718 46.9096 407.252 46.6304 406.917 46.2225C406.582 45.8145 406.399 45.303 406.399 44.7752V22.0023C406.399 21.6976 406.459 21.396 406.578 21.1153C406.696 20.8345 406.87 20.5803 407.088 20.3676C407.306 20.1549 407.565 19.9881 407.848 19.877C408.132 19.7659 408.435 19.7127 408.74 19.7206ZM470.05 15.0831C470.05 14.622 469.868 14.1795 469.543 13.852C469.218 13.5246 468.778 13.3387 468.316 13.3347H443.617C443.158 13.3385 442.717 13.5219 442.391 13.8458C442.064 14.1697 441.877 14.6084 441.869 15.0683V19.7058H470.02L470.05 15.0831Z" fill="white"/>
<path d="M451.085 60.6733H460.834C462.045 60.6733 463.027 59.6916 463.027 58.4805V52.3169C463.027 51.1058 462.045 50.1241 460.834 50.1241H451.085C449.874 50.1241 448.892 51.1058 448.892 52.3169V58.4805C448.892 59.6916 449.874 60.6733 451.085 60.6733Z" fill="#0034D1"/>
<path opacity="0.3" d="M451.085 60.6733H460.834C462.045 60.6733 463.027 59.6916 463.027 58.4805V52.3169C463.027 51.1058 462.045 50.1241 460.834 50.1241H451.085C449.874 50.1241 448.892 51.1058 448.892 52.3169V58.4805C448.892 59.6916 449.874 60.6733 451.085 60.6733Z" fill="white"/>
<path d="M422.549 213.875H501.224C501.838 213.871 502.426 213.624 502.859 213.188C503.292 212.753 503.535 212.163 503.535 211.549V173.811C503.533 173.5 503.467 173.193 503.342 172.908C503.288 172.772 503.219 172.642 503.135 172.522C503.052 172.396 502.953 172.281 502.839 172.182C502.626 171.965 502.372 171.794 502.092 171.677C501.813 171.56 501.512 171.5 501.209 171.5H426.712C427.332 176.671 427.535 181.883 427.319 187.087C427.319 187.931 427.319 188.776 427.186 189.606C427.097 191.161 426.964 192.732 426.786 194.288C426.038 200.943 424.618 207.505 422.549 213.875Z" fill="#0034D1"/>
<path opacity="0.6" d="M422.549 213.875H501.224C501.838 213.871 502.426 213.624 502.859 213.188C503.292 212.753 503.535 212.163 503.535 211.549V173.811C503.533 173.5 503.467 173.193 503.342 172.908C503.288 172.772 503.219 172.642 503.135 172.522C503.052 172.396 502.953 172.281 502.839 172.182C502.626 171.965 502.372 171.794 502.092 171.677C501.813 171.56 501.512 171.5 501.209 171.5H426.712C427.332 176.671 427.535 181.883 427.319 187.087C427.319 187.931 427.319 188.776 427.186 189.606C427.097 191.161 426.964 192.732 426.786 194.288C426.038 200.943 424.618 207.505 422.549 213.875Z" fill="white"/>
<path opacity="0.1" d="M426.712 171.5C427.332 176.671 427.535 181.883 427.319 187.087C427.319 187.931 427.319 188.776 427.186 189.606L448.937 193.873L455.574 195.177C455.861 195.251 456.162 195.251 456.448 195.177L463.071 193.888L503.565 185.916V173.797C503.56 173.492 503.5 173.191 503.387 172.908C503.333 172.772 503.263 172.642 503.179 172.522C503.097 172.396 502.997 172.281 502.883 172.182C502.67 171.965 502.417 171.794 502.137 171.677C501.857 171.56 501.557 171.5 501.253 171.5H426.712Z" fill="black"/>
<path d="M423.601 156.002H436.388V151.364C436.392 149.448 437.155 147.611 438.51 146.256C439.865 144.901 441.702 144.138 443.618 144.134H468.302C470.221 144.134 472.062 144.895 473.42 146.251C474.778 147.606 475.543 149.445 475.547 151.364V156.002H503.18C503.785 156.002 504.365 156.242 504.793 156.67C505.221 157.098 505.462 157.678 505.462 158.283V181.101C505.462 181.63 505.279 182.144 504.945 182.554C504.61 182.965 504.143 183.247 503.624 183.353H503.521L463.028 191.339L456.345 192.613C456.057 192.672 455.76 192.672 455.471 192.613L448.833 191.309L427.246 187.057C427.666 176.555 426.416 166.052 423.542 155.942L423.601 156.002ZM470.05 151.364C470.043 150.904 469.856 150.466 469.529 150.142C469.202 149.818 468.762 149.634 468.302 149.631H443.618C443.159 149.635 442.721 149.818 442.396 150.143C442.072 150.467 441.888 150.906 441.884 151.364V156.002H470.036L470.05 151.364Z" fill="#0034D1"/>
<path opacity="0.6" d="M423.601 156.002H436.388V151.364C436.392 149.448 437.155 147.611 438.51 146.256C439.865 144.901 441.702 144.138 443.618 144.134H468.302C470.221 144.134 472.062 144.895 473.42 146.251C474.778 147.606 475.543 149.445 475.547 151.364V156.002H503.18C503.785 156.002 504.365 156.242 504.793 156.67C505.221 157.098 505.462 157.678 505.462 158.283V181.101C505.462 181.63 505.279 182.144 504.945 182.554C504.61 182.965 504.143 183.247 503.624 183.353H503.521L463.028 191.339L456.345 192.613C456.057 192.672 455.76 192.672 455.471 192.613L448.833 191.309L427.246 187.057C427.666 176.555 426.416 166.052 423.542 155.942L423.601 156.002ZM470.05 151.364C470.043 150.904 469.856 150.466 469.529 150.142C469.202 149.818 468.762 149.634 468.302 149.631H443.618C443.159 149.635 442.721 149.818 442.396 150.143C442.072 150.467 441.888 150.906 441.884 151.364V156.002H470.036L470.05 151.364Z" fill="white"/>
<path d="M451.085 196.969H460.834C462.045 196.969 463.027 195.987 463.027 194.776V188.613C463.027 187.402 462.045 186.42 460.834 186.42H451.085C449.874 186.42 448.892 187.402 448.892 188.613V194.776C448.892 195.987 449.874 196.969 451.085 196.969Z" fill="#0034D1"/>
<path opacity="0.3" d="M451.085 196.969H460.834C462.045 196.969 463.027 195.987 463.027 194.776V188.613C463.027 187.402 462.045 186.42 460.834 186.42H451.085C449.874 186.42 448.892 187.402 448.892 188.613V194.776C448.892 195.987 449.874 196.969 451.085 196.969Z" fill="white"/>
<path d="M384.782 162.299H254.723C252.89 162.299 251.404 163.785 251.404 165.618V219.861C251.404 221.694 252.89 223.179 254.723 223.179H384.782C386.615 223.179 388.1 221.694 388.1 219.861V165.618C388.1 163.785 386.615 162.299 384.782 162.299Z" fill="#0034D1"/>
<path d="M337.489 152.609H302.003C299.313 152.605 296.733 151.534 294.831 149.632C292.928 147.729 291.858 145.15 291.854 142.46V133.347C291.858 130.657 292.928 128.078 294.831 126.175C296.733 124.273 299.313 123.202 302.003 123.198H337.489C340.18 123.198 342.762 124.268 344.665 126.171C346.568 128.074 347.638 130.656 347.638 133.347V142.415C347.644 143.752 347.385 145.076 346.878 146.313C346.371 147.549 345.624 148.673 344.681 149.62C343.738 150.568 342.617 151.319 341.383 151.832C340.148 152.345 338.825 152.609 337.489 152.609ZM302.003 130.651C301.289 130.659 300.606 130.945 300.1 131.448C299.593 131.952 299.303 132.633 299.292 133.347V142.415C299.292 143.142 299.581 143.839 300.095 144.353C300.609 144.867 301.306 145.156 302.033 145.156H337.518C338.245 145.156 338.942 144.867 339.456 144.353C339.97 143.839 340.259 143.142 340.259 142.415V133.347C340.259 132.621 339.97 131.923 339.456 131.409C338.942 130.895 338.245 130.606 337.518 130.606L302.003 130.651Z" fill="#0034D1"/>
<path opacity="0.2" d="M384.767 162.299H254.738C254.301 162.297 253.868 162.381 253.463 162.547C253.059 162.713 252.691 162.957 252.382 163.266C252.072 163.574 251.826 163.941 251.658 164.344C251.491 164.748 251.404 165.181 251.404 165.618V183.027L319.115 196.362C319.53 196.452 319.96 196.452 320.375 196.362L388.1 183.027V165.618C388.1 165.181 388.014 164.748 387.846 164.344C387.679 163.941 387.433 163.574 387.123 163.266C386.813 162.957 386.446 162.713 386.041 162.547C385.637 162.381 385.204 162.297 384.767 162.299Z" fill="black"/>
<path d="M388.19 179.278L320.345 192.613C319.924 192.687 319.493 192.687 319.071 192.613L251.227 179.278C250.481 179.131 249.81 178.73 249.327 178.144C248.843 177.558 248.577 176.823 248.575 176.063V143.319C248.575 142.889 248.659 142.463 248.824 142.066C248.989 141.669 249.23 141.308 249.534 141.003C249.838 140.699 250.199 140.458 250.596 140.294C250.993 140.129 251.419 140.044 251.849 140.044H387.597C388.027 140.044 388.453 140.129 388.85 140.294C389.247 140.458 389.608 140.699 389.912 141.003C390.216 141.308 390.458 141.669 390.622 142.066C390.787 142.463 390.871 142.889 390.871 143.319V176.122C390.857 176.877 390.582 177.603 390.093 178.178C389.604 178.753 388.932 179.142 388.19 179.278Z" fill="#0034D1"/>
<path d="M326.775 183.738H312.744C311.01 183.738 309.603 185.145 309.603 186.879V195.754C309.603 197.489 311.01 198.895 312.744 198.895H326.775C328.51 198.895 329.917 197.489 329.917 195.754V186.879C329.917 185.145 328.51 183.738 326.775 183.738Z" fill="#0034D1"/>
<path opacity="0.4" d="M326.775 183.738H312.744C311.01 183.738 309.603 185.145 309.603 186.879V195.754C309.603 197.489 311.01 198.895 312.744 198.895H326.775C328.51 198.895 329.917 197.489 329.917 195.754V186.879C329.917 185.145 328.51 183.738 326.775 183.738Z" fill="black"/>
<path d="M564.357 195.888C566.061 199.399 567.321 202.718 568.802 206.185C570.284 209.652 571.365 213.104 572.521 216.645C574.864 223.825 576.594 231.191 577.692 238.663C577.84 239.596 577.914 240.604 578.018 241.626L578.166 243.108C578.166 243.374 578.166 243.567 578.166 243.878V244.841C578.216 247.088 578.022 249.333 577.588 251.538C576.854 255.37 575.808 259.136 574.462 262.799C571.932 269.761 568.778 276.48 565.039 282.875L557.512 279.689C559.186 272.933 560.875 266.043 562.15 259.391C562.773 256.203 563.213 252.983 563.468 249.745C563.556 248.422 563.526 247.093 563.379 245.775L563.216 244.841L563.009 243.656C562.846 242.87 562.742 242.085 562.55 241.285C561.073 234.745 559.162 228.31 556.831 222.024C555.704 218.809 554.46 215.608 553.215 212.393C551.971 209.178 550.593 205.948 549.319 202.985L564.357 195.888Z" fill="#7F3E3B"/>
<path d="M557.838 277.719L552.059 283.349L564.668 289.276C564.668 289.276 567.72 283.942 565.616 279.111L557.838 277.719Z" fill="#7F3E3B"/>
<path d="M547.407 291.75L558.046 296.106L564.669 289.216L552.06 283.349L547.407 291.75Z" fill="#7F3E3B"/>
<path opacity="0.2" d="M331.606 285.675C352.572 283.327 372.371 274.815 388.499 261.216C404.628 247.616 416.362 229.54 422.218 209.272C428.074 189.004 427.789 167.455 421.399 147.349C415.009 127.243 402.801 109.483 386.319 96.3146C369.836 83.1463 349.819 75.1609 328.798 73.3679C307.778 71.575 286.698 76.0551 268.223 86.2418C249.748 96.4284 234.709 111.864 225.006 130.598C215.303 149.331 211.373 170.521 213.712 191.487C215.266 205.414 219.548 218.898 226.314 231.17C233.08 243.441 242.198 254.259 253.146 263.006C264.094 271.752 276.658 278.256 290.121 282.146C303.583 286.036 317.68 287.235 331.606 285.675Z" fill="#0034D1"/>
<path opacity="0.1" d="M253.983 95.625L416.223 225.209C416.919 223.728 417.571 222.246 418.208 220.764C422.274 211.09 424.871 200.862 425.913 190.42L285.779 78.5269C274.279 82.362 263.524 88.1456 253.983 95.625Z" fill="white"/>
<path opacity="0.1" d="M216.557 152.417L369.077 274.281C383.569 266.723 396.13 255.936 405.792 242.752L239.226 109.642C228.491 121.974 220.735 136.609 216.557 152.417Z" fill="white"/>
<path d="M582.537 299.469C582.342 296.773 581.46 294.171 579.974 291.913C578.894 290.252 577.383 288.915 575.603 288.046L565.483 283.082C558.757 279.749 551.986 276.504 545.215 273.259C538.443 270.014 531.628 266.829 524.842 263.613C518.056 260.398 511.211 257.272 504.351 254.205C490.66 248.002 476.881 241.967 463.013 236.099C456.079 233.136 449.13 230.291 442.122 227.506C440.076 226.7 438.413 225.147 437.469 223.16C436.525 221.174 436.372 218.904 437.04 216.808C446.421 187.232 444.285 155.204 431.059 127.136C417.833 99.0671 394.494 77.0296 365.714 65.4345C336.934 53.8394 304.836 53.5424 275.846 64.603C246.856 75.6636 223.113 97.2656 209.37 125.085C195.628 152.904 192.899 184.887 201.731 214.631C210.563 244.376 230.304 269.688 257.002 285.499C283.699 301.31 315.384 306.454 345.712 299.901C376.041 293.349 402.775 275.583 420.564 250.16C421.823 248.353 423.722 247.092 425.876 246.633C428.03 246.174 430.278 246.55 432.165 247.686C438.645 251.538 445.154 255.326 451.693 259.05C464.761 266.498 477.928 273.758 491.194 280.83C497.817 284.416 504.529 287.868 511.122 291.379C517.715 294.891 524.457 298.313 531.169 301.751C537.88 305.188 544.503 308.552 551.304 311.87L561.394 316.878C563.167 317.77 565.15 318.159 567.128 318.004C569.821 317.814 572.418 316.931 574.669 315.441C577.354 313.792 579.517 311.418 580.91 308.591C582.302 305.765 582.866 302.602 582.537 299.469ZM276.771 266.695C259.547 258.196 245.23 244.78 235.631 228.144C226.033 211.508 221.583 192.399 222.844 173.234C224.106 154.068 231.023 135.708 242.72 120.474C254.418 105.24 270.37 93.8168 288.559 87.6493C306.749 81.4818 326.359 80.8469 344.909 85.8249C363.46 90.8029 380.117 101.17 392.776 115.616C405.434 130.061 413.524 147.936 416.023 166.979C418.522 186.023 415.317 205.379 406.814 222.602C401.171 234.036 393.331 244.247 383.742 252.651C374.152 261.056 363.001 267.489 350.925 271.583C338.85 275.678 326.085 277.354 313.362 276.515C300.638 275.676 288.205 272.339 276.771 266.695Z" fill="#0034D1"/>
<path d="M508.484 150.09C508.484 150.965 508.025 151.676 507.447 151.676C506.869 151.676 506.41 150.965 506.41 150.09C506.41 149.216 506.869 148.49 507.447 148.49C508.025 148.49 508.484 149.201 508.484 150.09Z" fill="#263238"/>
<path d="M508.099 151.675C507.058 154.359 505.652 156.887 503.921 159.187C504.52 159.616 505.206 159.908 505.93 160.044C506.655 160.18 507.4 160.155 508.114 159.972L508.099 151.675Z" fill="#630F0F"/>
<path d="M511.596 145.201C511.704 145.198 511.808 145.161 511.894 145.097C511.98 145.032 512.043 144.942 512.076 144.839C512.109 144.737 512.108 144.627 512.076 144.524C512.043 144.422 511.979 144.332 511.893 144.267C511.238 143.777 510.476 143.448 509.67 143.309C508.864 143.17 508.036 143.224 507.255 143.467C507.185 143.486 507.12 143.52 507.064 143.566C507.007 143.612 506.962 143.669 506.929 143.733C506.896 143.798 506.877 143.869 506.873 143.941C506.87 144.014 506.881 144.086 506.907 144.154C506.933 144.221 506.973 144.283 507.025 144.334C507.076 144.385 507.137 144.425 507.205 144.452C507.273 144.478 507.345 144.489 507.418 144.486C507.49 144.482 507.561 144.463 507.625 144.43C508.247 144.245 508.904 144.209 509.542 144.325C510.181 144.441 510.783 144.705 511.3 145.097C511.383 145.165 511.488 145.202 511.596 145.201Z" fill="#263238"/>
<path d="M538.458 156.698C536.888 164.669 535.332 179.264 540.903 184.568C540.903 184.568 538.725 192.643 523.938 192.643C507.64 192.643 516.159 184.568 516.159 184.568C525.049 182.449 524.812 175.856 523.256 169.752L538.458 156.698Z" fill="#7F3E3B"/>
<path d="M543.762 179.575C544.992 179.975 543.392 187.294 543.392 187.294C543.392 187.294 541.362 192.406 516.145 190.628C514.204 190.48 514.945 183.457 516.797 182.434C522.768 179.175 539.792 178.271 543.762 179.575Z" fill="#263238"/>
<path d="M594.983 485.696C596.346 485.563 598.331 483.059 598.895 482.14C598.919 482.1 598.933 482.054 598.933 482.007C598.933 481.96 598.919 481.914 598.895 481.874C598.87 481.83 598.833 481.795 598.788 481.774C598.743 481.752 598.692 481.746 598.643 481.755C598.494 481.755 594.909 482.437 594.035 483.829C593.942 483.976 593.882 484.139 593.856 484.31C593.831 484.481 593.841 484.655 593.887 484.822C594.079 485.474 594.45 485.652 594.746 485.696H594.983ZM598.109 482.392C597.146 483.726 595.561 485.281 594.805 485.178C594.731 485.178 594.509 485.178 594.376 484.674C594.347 484.577 594.339 484.475 594.355 484.375C594.37 484.275 594.408 484.18 594.464 484.096C595.486 483.183 596.753 482.59 598.109 482.392Z" fill="#0034D1"/>
<path d="M597.96 482.393C598.225 482.37 598.488 482.326 598.746 482.259C598.789 482.245 598.829 482.22 598.86 482.186C598.891 482.153 598.913 482.111 598.923 482.067C598.932 482.021 598.928 481.973 598.913 481.929C598.897 481.885 598.87 481.845 598.835 481.815C598.746 481.726 596.345 479.681 594.716 479.844C594.519 479.857 594.328 479.911 594.155 480.003C593.981 480.095 593.829 480.223 593.708 480.378C593.568 480.512 593.481 480.692 593.462 480.884C593.443 481.077 593.494 481.271 593.604 481.43C594.138 482.274 596.479 482.541 597.96 482.393ZM598.079 481.874C596.597 482.052 594.434 481.756 594.019 481.148C594.019 481.148 593.901 480.955 594.108 480.689C594.191 480.591 594.293 480.511 594.408 480.452C594.522 480.394 594.647 480.358 594.775 480.348C596.003 480.518 597.153 481.049 598.079 481.874Z" fill="#0034D1"/>
<path d="M493.12 524.664C494.243 524.66 495.363 524.56 496.469 524.367C496.518 524.354 496.563 524.328 496.6 524.291C496.636 524.255 496.662 524.21 496.676 524.16C496.685 524.107 496.677 524.053 496.653 524.005C496.629 523.957 496.59 523.918 496.543 523.893C496.38 523.79 492.587 521.626 490.764 522.115C490.423 522.202 490.13 522.421 489.949 522.723C489.833 522.888 489.771 523.084 489.771 523.286C489.771 523.487 489.833 523.684 489.949 523.849C490.423 524.501 491.727 524.664 493.12 524.664ZM495.639 523.982C493.609 524.264 490.853 524.249 490.349 523.552C490.275 523.464 490.216 523.301 490.349 522.975C490.404 522.883 490.477 522.804 490.563 522.743C490.65 522.682 490.749 522.64 490.853 522.619C492.024 522.308 494.305 523.301 495.639 523.982Z" fill="#0034D1"/>
<path d="M496.35 524.367C496.404 524.383 496.46 524.383 496.513 524.367C496.547 524.338 496.574 524.302 496.592 524.261C496.61 524.22 496.619 524.175 496.617 524.13C496.617 524.012 496.306 521.078 494.928 519.937C494.724 519.767 494.487 519.64 494.233 519.564C493.978 519.487 493.71 519.463 493.446 519.493C492.735 519.567 492.543 519.922 492.483 520.219C492.291 521.449 494.898 523.804 496.202 524.397L496.35 524.367ZM493.698 519.922C494.029 519.932 494.347 520.052 494.602 520.263C495.424 521.203 495.941 522.371 496.084 523.612C494.735 522.812 492.972 520.96 493.12 520.219C493.12 520.219 493.12 519.982 493.624 519.937L493.698 519.922Z" fill="#0034D1"/>
<path d="M508.381 524.115H497.506L496.409 498.898H507.299L508.381 524.115Z" fill="#7F3E3B"/>
<path d="M608.406 474.169L599.916 480.97L578.314 465.976L586.819 459.175L608.406 474.169Z" fill="#7F3E3B"/>
<path d="M598.36 480.54L607.043 471.932C607.199 471.782 607.4 471.689 607.615 471.667C607.83 471.646 608.046 471.697 608.228 471.813L616.57 477.177C616.772 477.308 616.942 477.483 617.066 477.689C617.191 477.895 617.267 478.127 617.288 478.367C617.31 478.607 617.276 478.849 617.19 479.074C617.104 479.299 616.968 479.501 616.792 479.666C613.71 482.629 612.066 483.904 608.243 487.682C605.902 490.023 600.168 496.986 596.923 500.202C593.678 503.417 590.063 500.631 591.115 499.016C595.782 491.816 597.368 485.874 597.575 482.259C597.62 481.61 597.899 480.999 598.36 480.54Z" fill="#263238"/>
<path d="M497.565 522.856H509.418C509.633 522.855 509.842 522.928 510.009 523.063C510.176 523.198 510.292 523.386 510.336 523.597L512.485 533.272C512.539 533.504 512.539 533.746 512.486 533.979C512.432 534.211 512.327 534.429 512.177 534.615C512.027 534.8 511.837 534.949 511.62 535.05C511.404 535.151 511.168 535.202 510.929 535.198C506.632 535.198 500.439 534.887 495.046 534.887C488.749 534.887 483.311 535.228 475.918 535.228C471.473 535.228 470.214 530.709 472.08 530.294C480.6 528.442 487.549 528.234 494.898 523.7C495.69 523.176 496.614 522.883 497.565 522.856Z" fill="#263238"/>
<path d="M562.357 187.828C571.795 192.273 575.692 222.735 575.692 222.735L553.986 231.255C550.617 223.006 547.887 214.511 545.822 205.844C542.784 192.095 552.652 183.205 562.357 187.828Z" fill="#0034D1"/>
<path opacity="0.3" d="M562.357 187.828C571.795 192.273 575.692 222.735 575.692 222.735L553.986 231.255C550.617 223.006 547.887 214.511 545.822 205.844C542.784 192.095 552.652 183.205 562.357 187.828Z" fill="white"/>
<path opacity="0.2" d="M548.296 196.762C547.556 196.403 546.782 196.12 545.985 195.917C545.119 199.166 545.088 202.581 545.896 205.844C547.952 214.512 550.677 223.008 554.045 231.255L561.201 228.454C559.883 220.498 555.838 200.377 548.296 196.762Z" fill="black"/>
<path d="M499.417 187.591C499.417 187.591 487.831 200.674 498.765 281.675H556.994C557.394 272.785 551.778 229.136 560.401 187.028C553.962 185.789 547.449 184.968 540.903 184.568C532.662 184.094 524.401 184.094 516.16 184.568C510.509 185.138 504.911 186.148 499.417 187.591Z" fill="#0034D1"/>
<path opacity="0.3" d="M499.417 187.591C499.417 187.591 487.831 200.674 498.765 281.675H556.994C557.394 272.785 551.778 229.136 560.401 187.028C553.962 185.789 547.449 184.968 540.903 184.568C532.662 184.094 524.401 184.094 516.16 184.568C510.509 185.138 504.911 186.148 499.417 187.591Z" fill="white"/>
<path opacity="0.2" d="M511.167 204.955C508.529 197.043 502.188 194.51 495.728 199.207C494.424 206.882 493.505 219.253 494.557 238.87L505.922 238.766C505.922 238.766 515.063 216.734 511.167 204.955Z" fill="black"/>
<path d="M509.033 201.711C508.559 205.682 507.907 209.282 507.181 213.03C506.455 216.779 505.611 220.439 504.647 224.128C502.746 231.668 500.157 239.018 496.913 246.086C496.069 247.908 495.091 249.701 494.054 251.494C493.52 252.398 492.987 253.301 492.38 254.19C491.592 255.426 490.662 256.565 489.609 257.583C487.564 259.479 485.14 260.919 482.497 261.806C480.351 262.558 478.131 263.08 475.874 263.362C471.847 263.861 467.777 263.911 463.739 263.51C461.764 263.352 459.838 263.1 457.961 262.754C456.035 262.414 454.212 262.058 452.227 261.539L453.19 253.42C459.953 253.136 466.667 252.143 473.222 250.457C474.555 250.062 475.85 249.546 477.089 248.916C477.903 248.543 478.614 247.978 479.163 247.271C479.045 247.375 480.126 245.582 480.763 244.308C481.401 243.034 482.112 241.345 482.719 239.863C483.964 236.811 485.031 233.581 486.008 230.277C486.986 226.973 487.846 223.609 488.646 220.202C489.446 216.794 490.127 213.356 490.868 209.83C491.609 206.304 492.142 202.807 492.676 199.533L509.033 201.711Z" fill="#7F3E3B"/>
<path d="M513.967 195.576C517.034 205.518 504.588 235.151 504.588 235.151L478.378 228.558C479.982 219.191 482.683 210.046 486.423 201.31C494.868 182.819 510.277 183.59 513.967 195.576Z" fill="#0034D1"/>
<path opacity="0.3" d="M513.967 195.576C517.034 205.518 504.588 235.151 504.588 235.151L478.378 228.558C479.982 219.191 482.683 210.046 486.423 201.31C494.868 182.819 510.277 183.59 513.967 195.576Z" fill="white"/>
<path d="M453.56 253.464L441.233 253.153L447.159 265.969C447.159 265.969 452.167 266.636 456.286 259.865L460.628 254.694L455.634 253.686C454.951 253.553 454.257 253.479 453.56 253.464Z" fill="#7F3E3B"/>
<path d="M433.455 255.538L440.522 266.162L447.175 265.969L441.233 253.153L433.455 255.538Z" fill="#7F3E3B"/>
<path opacity="0.2" d="M496.424 498.913L496.973 511.907H507.863L507.3 498.913H496.424Z" fill="black"/>
<path opacity="0.2" d="M586.819 459.175L578.314 465.976L589.456 473.71L597.96 466.909L586.819 459.175Z" fill="black"/>
<path d="M537.836 148.164C537.184 158.95 537.362 165.292 531.909 170.833C523.731 179.16 510.411 174.241 507.833 163.425C505.506 153.735 506.973 137.733 517.523 133.422C519.849 132.459 522.383 132.109 524.883 132.405C527.383 132.701 529.765 133.633 531.802 135.111C533.84 136.59 535.464 138.566 536.52 140.851C537.577 143.136 538.03 145.654 537.836 148.164Z" fill="#7F3E3B"/>
<path d="M546.548 138.148C546.548 138.148 552.223 139.837 550.445 146.312C547.763 156.15 541.451 167.47 533.302 168.181C523.153 169.085 518.574 158.609 517.241 147.779C511.166 143.615 506.662 139.719 508.114 135.392C510.337 128.725 518.397 122.976 531.228 124.458C544.059 125.939 550.445 134.236 546.548 138.148Z" fill="#263238"/>
<path d="M523.419 150.001C523.222 152.677 522.15 155.212 520.367 157.217C517.996 159.825 515.507 158.195 515.092 155.024C514.722 152.15 515.493 147.334 518.397 145.897C521.301 144.46 523.612 146.771 523.419 150.001Z" fill="#7F3E3B"/>
<path d="M519.419 281.675C519.419 281.675 515.745 355.046 522.901 386.13C534.235 435.351 584.063 474.792 584.063 474.792L600.065 461.976C600.065 461.976 559.068 431.469 555.378 390.486C552.074 353.683 556.964 311.411 556.964 281.675H519.419Z" fill="#0034D1"/>
<path opacity="0.2" d="M519.419 281.675C519.419 281.675 515.745 355.046 522.901 386.13C534.235 435.351 584.063 474.792 584.063 474.792L600.065 461.976C600.065 461.976 559.068 431.469 555.378 390.486C552.074 353.683 556.964 311.411 556.964 281.675H519.419Z" fill="black"/>
<path opacity="0.2" d="M524.886 303.41C523.404 300.551 520.515 309.07 518.5 320.005C518.5 335.088 518.767 352.245 520.085 366.78C530.146 348.185 528.012 309.337 524.886 303.41Z" fill="black"/>
<path d="M576.803 471.636L582.878 476.347L601.354 461.368L595.812 456.345L576.803 471.636Z" fill="#2C6BDB"/>
<path opacity="0.4" d="M576.803 471.636L582.878 476.347L601.354 461.368L595.812 456.345L576.803 471.636Z" fill="#FAFAFA"/>
<path d="M498.765 281.675C498.765 281.675 482.378 351.164 481.222 384.352C479.933 421.586 492.912 509.388 492.912 509.388H511.359C511.359 509.388 513.626 420.905 514.456 386.99C515.345 350.023 537.036 281.675 537.036 281.675H498.765Z" fill="#0034D1"/>
<path opacity="0.2" d="M498.765 281.675C498.765 281.675 482.378 351.164 481.222 384.352C479.933 421.586 492.912 509.388 492.912 509.388H511.359C511.359 509.388 513.626 420.905 514.456 386.99C515.345 350.023 537.036 281.675 537.036 281.675H498.765Z" fill="black"/>
<path d="M489.371 502.039C489.283 502.039 490.409 509.699 490.409 509.699H512.841L513.448 502.869L489.371 502.039Z" fill="#2C6BDB"/>
<path opacity="0.4" d="M489.371 502.039C489.283 502.039 490.409 509.699 490.409 509.699H512.841L513.448 502.869L489.371 502.039Z" fill="#FAFAFA"/>
</svg>
